<mxfile host="app.diagrams.net" agent="Mozilla/5.0 (Macintosh; Intel Mac OS X 10_15_7) AppleWebKit/537.36 (KHTML, like Gecko) Chrome/136.0.0.0 Safari/537.36" version="27.0.3">
  <diagram name="第 1 页" id="a_R8tEP5FoVeARdBM2YP">
    <mxGraphModel dx="1344" dy="828" grid="1" gridSize="10" guides="1" tooltips="1" connect="1" arrows="1" fold="1" page="1" pageScale="1" pageWidth="827" pageHeight="1169" math="0" shadow="0">
      <root>
        <mxCell id="0" />
        <mxCell id="1" parent="0" />
        <mxCell id="W5giuiDfqe_HoSyo9ive-1" value="MQ" style="shape=cylinder3;whiteSpace=wrap;html=1;boundedLbl=1;backgroundOutline=1;size=15;" vertex="1" parent="1">
          <mxGeometry x="340" y="150" width="60" height="80" as="geometry" />
        </mxCell>
        <mxCell id="W5giuiDfqe_HoSyo9ive-6" style="edgeStyle=orthogonalEdgeStyle;rounded=0;orthogonalLoop=1;jettySize=auto;html=1;exitX=0.5;exitY=1;exitDx=0;exitDy=0;entryX=0.5;entryY=0;entryDx=0;entryDy=0;" edge="1" parent="1" source="W5giuiDfqe_HoSyo9ive-2" target="W5giuiDfqe_HoSyo9ive-5">
          <mxGeometry relative="1" as="geometry" />
        </mxCell>
        <mxCell id="W5giuiDfqe_HoSyo9ive-2" value="消费者1" style="rounded=1;whiteSpace=wrap;html=1;" vertex="1" parent="1">
          <mxGeometry x="320" y="270" width="120" height="60" as="geometry" />
        </mxCell>
        <mxCell id="W5giuiDfqe_HoSyo9ive-3" style="edgeStyle=orthogonalEdgeStyle;rounded=0;orthogonalLoop=1;jettySize=auto;html=1;exitX=0.5;exitY=1;exitDx=0;exitDy=0;exitPerimeter=0;entryX=0.426;entryY=-0.014;entryDx=0;entryDy=0;entryPerimeter=0;" edge="1" parent="1" source="W5giuiDfqe_HoSyo9ive-1" target="W5giuiDfqe_HoSyo9ive-2">
          <mxGeometry relative="1" as="geometry" />
        </mxCell>
        <mxCell id="W5giuiDfqe_HoSyo9ive-8" value="" style="edgeStyle=orthogonalEdgeStyle;rounded=0;orthogonalLoop=1;jettySize=auto;html=1;" edge="1" parent="1" source="W5giuiDfqe_HoSyo9ive-5" target="W5giuiDfqe_HoSyo9ive-7">
          <mxGeometry relative="1" as="geometry" />
        </mxCell>
        <mxCell id="W5giuiDfqe_HoSyo9ive-5" value="调用转链服务" style="rounded=1;whiteSpace=wrap;html=1;" vertex="1" parent="1">
          <mxGeometry x="320" y="400" width="120" height="60" as="geometry" />
        </mxCell>
        <mxCell id="W5giuiDfqe_HoSyo9ive-10" value="" style="edgeStyle=orthogonalEdgeStyle;rounded=0;orthogonalLoop=1;jettySize=auto;html=1;" edge="1" parent="1" source="W5giuiDfqe_HoSyo9ive-7" target="W5giuiDfqe_HoSyo9ive-9">
          <mxGeometry relative="1" as="geometry" />
        </mxCell>
        <mxCell id="W5giuiDfqe_HoSyo9ive-14" value="是" style="edgeLabel;html=1;align=center;verticalAlign=middle;resizable=0;points=[];" vertex="1" connectable="0" parent="W5giuiDfqe_HoSyo9ive-10">
          <mxGeometry x="0.0281" y="-1" relative="1" as="geometry">
            <mxPoint as="offset" />
          </mxGeometry>
        </mxCell>
        <mxCell id="W5giuiDfqe_HoSyo9ive-17" value="" style="edgeStyle=orthogonalEdgeStyle;rounded=0;orthogonalLoop=1;jettySize=auto;html=1;" edge="1" parent="1" source="W5giuiDfqe_HoSyo9ive-7" target="W5giuiDfqe_HoSyo9ive-16">
          <mxGeometry relative="1" as="geometry" />
        </mxCell>
        <mxCell id="W5giuiDfqe_HoSyo9ive-18" value="否" style="edgeLabel;html=1;align=center;verticalAlign=middle;resizable=0;points=[];" vertex="1" connectable="0" parent="W5giuiDfqe_HoSyo9ive-17">
          <mxGeometry x="-0.2839" y="-2" relative="1" as="geometry">
            <mxPoint as="offset" />
          </mxGeometry>
        </mxCell>
        <mxCell id="W5giuiDfqe_HoSyo9ive-7" value="是否限流" style="rhombus;whiteSpace=wrap;html=1;rounded=1;" vertex="1" parent="1">
          <mxGeometry x="340" y="530" width="80" height="80" as="geometry" />
        </mxCell>
        <mxCell id="W5giuiDfqe_HoSyo9ive-12" value="" style="edgeStyle=orthogonalEdgeStyle;rounded=0;orthogonalLoop=1;jettySize=auto;html=1;" edge="1" parent="1" source="W5giuiDfqe_HoSyo9ive-9" target="W5giuiDfqe_HoSyo9ive-11">
          <mxGeometry relative="1" as="geometry" />
        </mxCell>
        <mxCell id="W5giuiDfqe_HoSyo9ive-15" value="否" style="edgeLabel;html=1;align=center;verticalAlign=middle;resizable=0;points=[];" vertex="1" connectable="0" parent="W5giuiDfqe_HoSyo9ive-12">
          <mxGeometry x="0.1319" y="-1" relative="1" as="geometry">
            <mxPoint as="offset" />
          </mxGeometry>
        </mxCell>
        <mxCell id="W5giuiDfqe_HoSyo9ive-21" value="" style="edgeStyle=orthogonalEdgeStyle;rounded=0;orthogonalLoop=1;jettySize=auto;html=1;" edge="1" parent="1" source="W5giuiDfqe_HoSyo9ive-9" target="W5giuiDfqe_HoSyo9ive-20">
          <mxGeometry relative="1" as="geometry" />
        </mxCell>
        <mxCell id="W5giuiDfqe_HoSyo9ive-22" value="是" style="edgeLabel;html=1;align=center;verticalAlign=middle;resizable=0;points=[];" vertex="1" connectable="0" parent="W5giuiDfqe_HoSyo9ive-21">
          <mxGeometry x="-0.193" y="-3" relative="1" as="geometry">
            <mxPoint as="offset" />
          </mxGeometry>
        </mxCell>
        <mxCell id="W5giuiDfqe_HoSyo9ive-9" value="限流次数&amp;gt;x" style="rhombus;whiteSpace=wrap;html=1;rounded=1;" vertex="1" parent="1">
          <mxGeometry x="500" y="530" width="80" height="80" as="geometry" />
        </mxCell>
        <mxCell id="W5giuiDfqe_HoSyo9ive-13" style="edgeStyle=orthogonalEdgeStyle;rounded=0;orthogonalLoop=1;jettySize=auto;html=1;exitX=0;exitY=0.5;exitDx=0;exitDy=0;entryX=1;entryY=0.5;entryDx=0;entryDy=0;" edge="1" parent="1" source="W5giuiDfqe_HoSyo9ive-11" target="W5giuiDfqe_HoSyo9ive-5">
          <mxGeometry relative="1" as="geometry" />
        </mxCell>
        <mxCell id="W5giuiDfqe_HoSyo9ive-11" value="限流次数+1&lt;div&gt;sleep(50ms)&lt;/div&gt;" style="whiteSpace=wrap;html=1;rounded=1;" vertex="1" parent="1">
          <mxGeometry x="480" y="400" width="120" height="60" as="geometry" />
        </mxCell>
        <mxCell id="W5giuiDfqe_HoSyo9ive-24" style="edgeStyle=orthogonalEdgeStyle;rounded=0;orthogonalLoop=1;jettySize=auto;html=1;exitX=0.5;exitY=1;exitDx=0;exitDy=0;entryX=0.5;entryY=0;entryDx=0;entryDy=0;" edge="1" parent="1" source="W5giuiDfqe_HoSyo9ive-16" target="W5giuiDfqe_HoSyo9ive-23">
          <mxGeometry relative="1" as="geometry" />
        </mxCell>
        <mxCell id="W5giuiDfqe_HoSyo9ive-16" value="组装成功消息" style="whiteSpace=wrap;html=1;rounded=1;" vertex="1" parent="1">
          <mxGeometry x="320" y="720" width="120" height="60" as="geometry" />
        </mxCell>
        <mxCell id="W5giuiDfqe_HoSyo9ive-25" style="edgeStyle=orthogonalEdgeStyle;rounded=0;orthogonalLoop=1;jettySize=auto;html=1;exitX=0.5;exitY=1;exitDx=0;exitDy=0;entryX=0.5;entryY=0;entryDx=0;entryDy=0;" edge="1" parent="1" source="W5giuiDfqe_HoSyo9ive-20" target="W5giuiDfqe_HoSyo9ive-23">
          <mxGeometry relative="1" as="geometry" />
        </mxCell>
        <mxCell id="W5giuiDfqe_HoSyo9ive-20" value="组装失败消息" style="whiteSpace=wrap;html=1;rounded=1;" vertex="1" parent="1">
          <mxGeometry x="480" y="720" width="120" height="60" as="geometry" />
        </mxCell>
        <mxCell id="W5giuiDfqe_HoSyo9ive-23" value="消息推送中心" style="rounded=1;whiteSpace=wrap;html=1;" vertex="1" parent="1">
          <mxGeometry x="400" y="880" width="120" height="60" as="geometry" />
        </mxCell>
      </root>
    </mxGraphModel>
  </diagram>
</mxfile>
